# xmcd
#
# Track frame offsets: 
#        150
#        12053
#        25884
#        46661
#        68784
#        83520
#        101525
#        118736
#        139220
#        157767
#        177914
#
# Disc length: 2499 seconds
#
# Revision: 0
# Processed by: cddbd v1.5.1PL0 Copyright (c) Steve Scherf et al.
# Submitted via: ExactAudioCopy v0.95a5
#
DISCID=7b09c10b
DTITLE=Porterdavis - 15 Hours Unraveling
DYEAR=2005
DGENRE=Acoustic
TTITLE0=This Heart Game
TTITLE1=Little Bit Of Love
TTITLE2=Changes and Transmissions
TTITLE3=Since You've Been Gone
TTITLE4=Seam
TTITLE5=My Jolene
TTITLE6=Rebel Heart
TTITLE7=Blind Me Sun
TTITLE8=Penny Candy
TTITLE9=Heaven and Hell
TTITLE10=Do It The Same
EXTD=
EXTT0=
EXTT1=
EXTT2=
EXTT3=
EXTT4=
EXTT5=
EXTT6=
EXTT7=
EXTT8=
EXTT9=
EXTT10=
PLAYORDER=
